<?xml version="1.0" standalone="no"?>
<svg xmlns:xlink="http://www.w3.org/1999/xlink" id="wave" style="transform:rotate(180deg); transition: 0.3s" viewBox="0 0 1440 490" version="1.1" xmlns="http://www.w3.org/2000/svg"><defs><linearGradient id="sw-gradient-0" x1="0" x2="0" y1="1" y2="0"><stop stop-color="rgba(0, 216.797, 232.552, 1)" offset="0%"/><stop stop-color="rgba(0, 229.086, 255, 1)" offset="100%"/></linearGradient></defs><path style="transform:translate(0, 0px); opacity:1" fill="url(#sw-gradient-0)" d="M0,0L24,16.3C48,33,96,65,144,122.5C192,180,240,261,288,269.5C336,278,384,212,432,212.3C480,212,528,278,576,261.3C624,245,672,147,720,98C768,49,816,49,864,81.7C912,114,960,180,1008,196C1056,212,1104,180,1152,212.3C1200,245,1248,343,1296,326.7C1344,310,1392,180,1440,106.2C1488,33,1536,16,1584,65.3C1632,114,1680,229,1728,277.7C1776,327,1824,310,1872,277.7C1920,245,1968,196,2016,179.7C2064,163,2112,180,2160,220.5C2208,261,2256,327,2304,326.7C2352,327,2400,261,2448,220.5C2496,180,2544,163,2592,163.3C2640,163,2688,180,2736,228.7C2784,278,2832,359,2880,343C2928,327,2976,212,3024,138.8C3072,65,3120,33,3168,89.8C3216,147,3264,294,3312,310.3C3360,327,3408,212,3432,155.2L3456,98L3456,490L3432,490C3408,490,3360,490,3312,490C3264,490,3216,490,3168,490C3120,490,3072,490,3024,490C2976,490,2928,490,2880,490C2832,490,2784,490,2736,490C2688,490,2640,490,2592,490C2544,490,2496,490,2448,490C2400,490,2352,490,2304,490C2256,490,2208,490,2160,490C2112,490,2064,490,2016,490C1968,490,1920,490,1872,490C1824,490,1776,490,1728,490C1680,490,1632,490,1584,490C1536,490,1488,490,1440,490C1392,490,1344,490,1296,490C1248,490,1200,490,1152,490C1104,490,1056,490,1008,490C960,490,912,490,864,490C816,490,768,490,720,490C672,490,624,490,576,490C528,490,480,490,432,490C384,490,336,490,288,490C240,490,192,490,144,490C96,490,48,490,24,490L0,490Z"/><defs><linearGradient id="sw-gradient-1" x1="0" x2="0" y1="1" y2="0"><stop stop-color="rgba(9.375, 178.756, 253.043, 1)" offset="0%"/><stop stop-color="rgba(0, 159.982, 255, 1)" offset="100%"/></linearGradient></defs><path style="transform:translate(0, 50px); opacity:0.9" fill="url(#sw-gradient-1)" d="M0,196L24,220.5C48,245,96,294,144,285.8C192,278,240,212,288,171.5C336,131,384,114,432,122.5C480,131,528,163,576,196C624,229,672,261,720,253.2C768,245,816,196,864,196C912,196,960,245,1008,253.2C1056,261,1104,229,1152,236.8C1200,245,1248,294,1296,334.8C1344,376,1392,408,1440,367.5C1488,327,1536,212,1584,204.2C1632,196,1680,294,1728,285.8C1776,278,1824,163,1872,106.2C1920,49,1968,49,2016,114.3C2064,180,2112,310,2160,326.7C2208,343,2256,245,2304,187.8C2352,131,2400,114,2448,106.2C2496,98,2544,98,2592,98C2640,98,2688,98,2736,147C2784,196,2832,294,2880,343C2928,392,2976,392,3024,383.8C3072,376,3120,359,3168,310.3C3216,261,3264,180,3312,130.7C3360,82,3408,65,3432,57.2L3456,49L3456,490L3432,490C3408,490,3360,490,3312,490C3264,490,3216,490,3168,490C3120,490,3072,490,3024,490C2976,490,2928,490,2880,490C2832,490,2784,490,2736,490C2688,490,2640,490,2592,490C2544,490,2496,490,2448,490C2400,490,2352,490,2304,490C2256,490,2208,490,2160,490C2112,490,2064,490,2016,490C1968,490,1920,490,1872,490C1824,490,1776,490,1728,490C1680,490,1632,490,1584,490C1536,490,1488,490,1440,490C1392,490,1344,490,1296,490C1248,490,1200,490,1152,490C1104,490,1056,490,1008,490C960,490,912,490,864,490C816,490,768,490,720,490C672,490,624,490,576,490C528,490,480,490,432,490C384,490,336,490,288,490C240,490,192,490,144,490C96,490,48,490,24,490L0,490Z"/><defs><linearGradient id="sw-gradient-2" x1="0" x2="0" y1="1" y2="0"><stop stop-color="rgba(0, 185.896, 255, 1)" offset="0%"/><stop stop-color="rgba(46.555, 167.538, 198.401, 1)" offset="100%"/></linearGradient></defs><path style="transform:translate(0, 100px); opacity:0.8" fill="url(#sw-gradient-2)" d="M0,343L24,326.7C48,310,96,278,144,245C192,212,240,180,288,171.5C336,163,384,180,432,204.2C480,229,528,261,576,302.2C624,343,672,392,720,400.2C768,408,816,376,864,359.3C912,343,960,343,1008,285.8C1056,229,1104,114,1152,122.5C1200,131,1248,261,1296,326.7C1344,392,1392,392,1440,375.7C1488,359,1536,327,1584,269.5C1632,212,1680,131,1728,106.2C1776,82,1824,114,1872,106.2C1920,98,1968,49,2016,49C2064,49,2112,98,2160,138.8C2208,180,2256,212,2304,204.2C2352,196,2400,147,2448,147C2496,147,2544,196,2592,220.5C2640,245,2688,245,2736,253.2C2784,261,2832,278,2880,302.2C2928,327,2976,359,3024,351.2C3072,343,3120,294,3168,228.7C3216,163,3264,82,3312,57.2C3360,33,3408,65,3432,81.7L3456,98L3456,490L3432,490C3408,490,3360,490,3312,490C3264,490,3216,490,3168,490C3120,490,3072,490,3024,490C2976,490,2928,490,2880,490C2832,490,2784,490,2736,490C2688,490,2640,490,2592,490C2544,490,2496,490,2448,490C2400,490,2352,490,2304,490C2256,490,2208,490,2160,490C2112,490,2064,490,2016,490C1968,490,1920,490,1872,490C1824,490,1776,490,1728,490C1680,490,1632,490,1584,490C1536,490,1488,490,1440,490C1392,490,1344,490,1296,490C1248,490,1200,490,1152,490C1104,490,1056,490,1008,490C960,490,912,490,864,490C816,490,768,490,720,490C672,490,624,490,576,490C528,490,480,490,432,490C384,490,336,490,288,490C240,490,192,490,144,490C96,490,48,490,24,490L0,490Z"/></svg>