<?xml version="1.0" standalone="no"?>
<svg xmlns:xlink="http://www.w3.org/1999/xlink" id="wave" style="transform:rotate(0deg); transition: 0.3s" viewBox="0 0 1440 490" version="1.1" xmlns="http://www.w3.org/2000/svg"><defs><linearGradient id="sw-gradient-0" x1="0" x2="0" y1="1" y2="0"><stop stop-color="rgba(0, 216.797, 232.552, 1)" offset="0%"/><stop stop-color="rgba(0, 229.086, 255, 1)" offset="100%"/></linearGradient></defs><path style="transform:translate(0, 0px); opacity:1" fill="url(#sw-gradient-0)" d="M0,0L34.3,16.3C68.6,33,137,65,206,122.5C274.3,180,343,261,411,269.5C480,278,549,212,617,212.3C685.7,212,754,278,823,261.3C891.4,245,960,147,1029,98C1097.1,49,1166,49,1234,81.7C1302.9,114,1371,180,1440,196C1508.6,212,1577,180,1646,212.3C1714.3,245,1783,343,1851,326.7C1920,310,1989,180,2057,106.2C2125.7,33,2194,16,2263,65.3C2331.4,114,2400,229,2469,277.7C2537.1,327,2606,310,2674,277.7C2742.9,245,2811,196,2880,179.7C2948.6,163,3017,180,3086,220.5C3154.3,261,3223,327,3291,326.7C3360,327,3429,261,3497,220.5C3565.7,180,3634,163,3703,163.3C3771.4,163,3840,180,3909,228.7C3977.1,278,4046,359,4114,343C4182.9,327,4251,212,4320,138.8C4388.6,65,4457,33,4526,89.8C4594.3,147,4663,294,4731,310.3C4800,327,4869,212,4903,155.2L4937.1,98L4937.1,490L4902.9,490C4868.6,490,4800,490,4731,490C4662.9,490,4594,490,4526,490C4457.1,490,4389,490,4320,490C4251.4,490,4183,490,4114,490C4045.7,490,3977,490,3909,490C3840,490,3771,490,3703,490C3634.3,490,3566,490,3497,490C3428.6,490,3360,490,3291,490C3222.9,490,3154,490,3086,490C3017.1,490,2949,490,2880,490C2811.4,490,2743,490,2674,490C2605.7,490,2537,490,2469,490C2400,490,2331,490,2263,490C2194.3,490,2126,490,2057,490C1988.6,490,1920,490,1851,490C1782.9,490,1714,490,1646,490C1577.1,490,1509,490,1440,490C1371.4,490,1303,490,1234,490C1165.7,490,1097,490,1029,490C960,490,891,490,823,490C754.3,490,686,490,617,490C548.6,490,480,490,411,490C342.9,490,274,490,206,490C137.1,490,69,490,34,490L0,490Z"/><defs><linearGradient id="sw-gradient-1" x1="0" x2="0" y1="1" y2="0"><stop stop-color="rgba(9.375, 178.756, 253.043, 1)" offset="0%"/><stop stop-color="rgba(0, 159.982, 255, 1)" offset="100%"/></linearGradient></defs><path style="transform:translate(0, 50px); opacity:0.9" fill="url(#sw-gradient-1)" d="M0,196L34.3,220.5C68.6,245,137,294,206,285.8C274.3,278,343,212,411,171.5C480,131,549,114,617,122.5C685.7,131,754,163,823,196C891.4,229,960,261,1029,253.2C1097.1,245,1166,196,1234,196C1302.9,196,1371,245,1440,253.2C1508.6,261,1577,229,1646,236.8C1714.3,245,1783,294,1851,334.8C1920,376,1989,408,2057,367.5C2125.7,327,2194,212,2263,204.2C2331.4,196,2400,294,2469,285.8C2537.1,278,2606,163,2674,106.2C2742.9,49,2811,49,2880,114.3C2948.6,180,3017,310,3086,326.7C3154.3,343,3223,245,3291,187.8C3360,131,3429,114,3497,106.2C3565.7,98,3634,98,3703,98C3771.4,98,3840,98,3909,147C3977.1,196,4046,294,4114,343C4182.9,392,4251,392,4320,383.8C4388.6,376,4457,359,4526,310.3C4594.3,261,4663,180,4731,130.7C4800,82,4869,65,4903,57.2L4937.1,49L4937.1,490L4902.9,490C4868.6,490,4800,490,4731,490C4662.9,490,4594,490,4526,490C4457.1,490,4389,490,4320,490C4251.4,490,4183,490,4114,490C4045.7,490,3977,490,3909,490C3840,490,3771,490,3703,490C3634.3,490,3566,490,3497,490C3428.6,490,3360,490,3291,490C3222.9,490,3154,490,3086,490C3017.1,490,2949,490,2880,490C2811.4,490,2743,490,2674,490C2605.7,490,2537,490,2469,490C2400,490,2331,490,2263,490C2194.3,490,2126,490,2057,490C1988.6,490,1920,490,1851,490C1782.9,490,1714,490,1646,490C1577.1,490,1509,490,1440,490C1371.4,490,1303,490,1234,490C1165.7,490,1097,490,1029,490C960,490,891,490,823,490C754.3,490,686,490,617,490C548.6,490,480,490,411,490C342.9,490,274,490,206,490C137.1,490,69,490,34,490L0,490Z"/><defs><linearGradient id="sw-gradient-2" x1="0" x2="0" y1="1" y2="0"><stop stop-color="rgba(0, 185.896, 255, 1)" offset="0%"/><stop stop-color="rgba(46.555, 167.538, 198.401, 1)" offset="100%"/></linearGradient></defs><path style="transform:translate(0, 100px); opacity:0.8" fill="url(#sw-gradient-2)" d="M0,343L34.3,326.7C68.6,310,137,278,206,245C274.3,212,343,180,411,171.5C480,163,549,180,617,204.2C685.7,229,754,261,823,302.2C891.4,343,960,392,1029,400.2C1097.1,408,1166,376,1234,359.3C1302.9,343,1371,343,1440,285.8C1508.6,229,1577,114,1646,122.5C1714.3,131,1783,261,1851,326.7C1920,392,1989,392,2057,375.7C2125.7,359,2194,327,2263,269.5C2331.4,212,2400,131,2469,106.2C2537.1,82,2606,114,2674,106.2C2742.9,98,2811,49,2880,49C2948.6,49,3017,98,3086,138.8C3154.3,180,3223,212,3291,204.2C3360,196,3429,147,3497,147C3565.7,147,3634,196,3703,220.5C3771.4,245,3840,245,3909,253.2C3977.1,261,4046,278,4114,302.2C4182.9,327,4251,359,4320,351.2C4388.6,343,4457,294,4526,228.7C4594.3,163,4663,82,4731,57.2C4800,33,4869,65,4903,81.7L4937.1,98L4937.1,490L4902.9,490C4868.6,490,4800,490,4731,490C4662.9,490,4594,490,4526,490C4457.1,490,4389,490,4320,490C4251.4,490,4183,490,4114,490C4045.7,490,3977,490,3909,490C3840,490,3771,490,3703,490C3634.3,490,3566,490,3497,490C3428.6,490,3360,490,3291,490C3222.9,490,3154,490,3086,490C3017.1,490,2949,490,2880,490C2811.4,490,2743,490,2674,490C2605.7,490,2537,490,2469,490C2400,490,2331,490,2263,490C2194.3,490,2126,490,2057,490C1988.6,490,1920,490,1851,490C1782.9,490,1714,490,1646,490C1577.1,490,1509,490,1440,490C1371.4,490,1303,490,1234,490C1165.7,490,1097,490,1029,490C960,490,891,490,823,490C754.3,490,686,490,617,490C548.6,490,480,490,411,490C342.9,490,274,490,206,490C137.1,490,69,490,34,490L0,490Z"/></svg>